# xmcd CD database file generated by OrangeCD 6.0
#
# Track frame offsets:
#	150
#	18183
#	71305
#	86115
#	107993
#	126070
#	146550
#	193683
#	204060
#	222840
#	242900
#	263083
#	283980
#	297063
#	312910
#
# Disc length: 4441 seconds
#
# Revision: 2
# Processed by: cddbd v1.5.2PL0 Copyright (c) Steve Scherf et al.
# Submitted via: OrangeCD 6.0
#
DISCID=df11570f
DTITLE=Stevie Ray Vaughan - Testimony
DYEAR=1986
DGENRE=Blues
TTITLE0=Testify
TTITLE1=Voodoo Chile
TTITLE2=Mary Had A Little Lamb
TTITLE3=Couldn't Stand The Weather
TTITLE4=Cold Shot
TTITLE5=Pride And Joy
TTITLE6=Texas Flood
TTITLE7=Lookin' Out The Window
TTITLE8=Little Sister
TTITLE9=It's Time That I Go
TTITLE10=Let The Good Times Roll
TTITLE11=Superstitious
TTITLE12=Love Struck Baby
TTITLE13=Blues
TTITLE14=Get High
EXTD=
EXTT0=
EXTT1=
EXTT2=
EXTT3=
EXTT4=
EXTT5=
EXTT6=
EXTT7=
EXTT8=
EXTT9=
EXTT10=
EXTT11=
EXTT12=
EXTT13=
EXTT14=
PLAYORDER=
